<svg width="72" height="71" viewBox="0 0 72 71" fill="none" xmlns="http://www.w3.org/2000/svg">
<g clip-path="url(#clip0_120_971)">
<mask id="mask0_120_971" style="mask-type:luminance" maskUnits="userSpaceOnUse" x="0" y="0" width="72" height="71">
<path d="M36 70.9396C55.7179 70.9396 71.7024 55.0734 71.7024 35.5015C71.7024 15.9296 55.7179 0.0634766 36 0.0634766C16.2821 0.0634766 0.297607 15.9296 0.297607 35.5015C0.297607 55.0734 16.2821 70.9396 36 70.9396Z" fill="white"/>
</mask>
<g mask="url(#mask0_120_971)">
<path d="M0.23999 61.109V0C24.24 0 48.24 0 72.24 0C72.2336 0.171521 72.224 0.343041 72.224 0.511386C72.224 20.5793 72.224 40.644 72.224 60.7119C72.224 60.8485 72.2112 60.9883 72.2048 61.1217C71.6064 61.1217 71.0624 61.1217 70.5184 61.1217C47.6 61.1217 24.6784 61.1217 1.75999 61.1217C1.25439 61.1217 0.74559 61.1153 0.23999 61.1122V61.109ZM48.6272 55.1661C48.6592 55.0295 48.704 54.9184 48.7136 54.804C48.8224 53.1904 48.9856 51.5769 49.0144 49.9633C49.0336 48.7309 48.88 47.4953 48.8 46.2629C48.6368 43.7473 48.2272 41.2698 47.4784 38.8653C46.8768 36.9341 46.2112 35.0093 45.4272 33.1448C44.0832 29.943 42.208 27.0336 40.0416 24.3146C37.9808 21.7291 35.6512 19.3945 32.9856 17.4189C31.4656 16.2913 29.84 15.3034 28.2688 14.2394C27.9328 14.0139 27.7472 14.1409 27.5616 14.4236C26.7744 15.6274 25.9744 16.8249 25.1904 18.0287C23.9072 19.9949 22.6272 21.9673 21.344 23.9367C20.384 25.4073 19.424 26.8779 18.4608 28.3454C17.3376 30.0542 16.208 31.7599 15.0848 33.4719C14.6944 34.0627 14.32 34.663 13.9104 35.3047C27.9872 37.6805 39.5008 44.3349 48.6304 55.1725L48.6272 55.1661ZM41.6768 6.0731C41.4944 6.31132 41.3728 6.4479 41.2736 6.60037C40.6112 7.6009 39.952 8.60462 39.2928 9.60833C38.3808 10.9996 37.4784 12.3971 36.5568 13.782C36.2048 14.3093 36.1888 14.2934 36.6656 14.6968C38.6272 16.3707 40.3776 18.2447 41.9776 20.2553C44.6016 23.5555 46.7296 27.1447 48.3488 31.023C49.3856 33.5069 50.2816 36.0384 50.7328 38.7001C50.7488 38.7922 50.7936 38.878 50.8256 38.9669C50.8608 38.9606 50.8992 38.9542 50.9344 38.9479C51.3376 33.7641 51.2576 28.5995 49.9552 23.5301C48.336 17.2315 45.744 11.3585 41.68 6.0731H41.6768Z" fill="#014F70"/>
<path d="M48.6592 55.1661C39.5712 44.3317 28.1088 37.6774 14.0928 35.2983C14.4992 34.6599 14.8768 34.0596 15.264 33.4656C16.3808 31.7567 17.5072 30.0479 18.624 28.339C19.584 26.8716 20.5408 25.4009 21.4944 23.9303C22.7712 21.961 24.0448 19.9885 25.3216 18.0224C26.1056 16.8186 26.8992 15.6211 27.6832 14.4173C27.8688 14.1314 28.0544 14.0075 28.3872 14.233C29.952 15.2939 31.568 16.2849 33.0816 17.4125C35.7344 19.3882 38.0544 21.7228 40.1056 24.3083C42.2624 27.0304 44.1312 29.9367 45.4688 33.1384C46.2496 35.0061 46.9088 36.9278 47.5104 38.859C48.256 41.2634 48.6624 43.7441 48.8256 46.2566C48.9056 47.489 49.0592 48.7246 49.04 49.957C49.0144 51.5705 48.8512 53.1841 48.7424 54.7977C48.736 54.912 48.6912 55.0232 48.656 55.1598L48.6592 55.1661ZM24.2816 29.2919C24.1536 32.9574 27.0848 35.7938 30.7072 35.7144C34.5408 35.6287 37.0144 32.7509 37.024 29.3745C37.0368 25.4359 33.8368 22.8567 30.368 22.9806C26.848 23.1045 23.9776 26.2744 24.2816 29.2951V29.2919Z" fill="#FFCB05"/>
<path d="M41.7408 6.07312C45.7888 11.3553 48.368 17.2283 49.9808 23.5301C51.28 28.5995 51.36 33.7673 50.9568 38.9479C50.9216 38.9543 50.8832 38.9606 50.848 38.967C50.816 38.878 50.7712 38.7923 50.7584 38.7001C50.3072 36.0384 49.4176 33.5069 48.384 31.023C46.7712 27.1447 44.6528 23.5555 42.0416 20.2553C40.448 18.2447 38.7072 16.3707 36.752 14.6968C36.2784 14.2902 36.2944 14.3093 36.6464 13.782C37.5648 12.3971 38.4608 10.9996 39.3696 9.60835C40.0256 8.60464 40.6816 7.60092 41.3408 6.60039C41.44 6.44792 41.5616 6.31134 41.744 6.07312H41.7408Z" fill="#FFCB05"/>
<path d="M24.2816 29.292C23.9776 26.2713 26.848 23.1013 30.368 22.9775C33.8368 22.8568 37.0368 25.4327 37.024 29.3714C37.0144 32.751 34.5408 35.6255 30.7072 35.7113C27.0848 35.7907 24.1536 32.9542 24.2816 29.2888V29.292Z" fill="#014F70"/>
<path d="M72.24 61.1217H0.0512085V71H72.24V61.1217Z" fill="#FFCB05"/>
</g>
</g>
<defs>
<clipPath id="clip0_120_971">
<rect width="72" height="71" fill="white"/>
</clipPath>
</defs>
</svg>
