<svg width="72" height="72" viewBox="0 0 72 72" fill="none" xmlns="http://www.w3.org/2000/svg">
<g clip-path="url(#clip0_120_983)">
<mask id="mask0_120_983" style="mask-type:luminance" maskUnits="userSpaceOnUse" x="0" y="0" width="72" height="72">
<path d="M36 71.907C55.8309 71.907 71.907 55.8309 71.907 36C71.907 16.1691 55.8309 0.0930176 36 0.0930176C16.1691 0.0930176 0.0930176 16.1691 0.0930176 36C0.0930176 55.8309 16.1691 71.907 36 71.907Z" fill="white"/>
</mask>
<g mask="url(#mask0_120_983)">
<path d="M0 72V0H72V72H0ZM46.83 24.348C46.848 24.6 46.875 24.792 46.875 24.981C46.878 28.515 46.884 32.049 46.878 35.583C46.878 36.132 46.896 36.666 47.109 37.191C47.592 38.367 48.429 39.168 49.65 39.447C50.391 39.615 51.18 39.585 51.948 39.6C52.935 39.618 53.415 39.126 53.409 38.136C53.4 36.93 53.364 35.721 53.355 34.515C53.319 28.515 53.292 22.515 53.256 16.512C53.256 16.278 53.28 16.008 53.175 15.816C53.052 15.585 52.833 15.369 52.602 15.243C52.41 15.138 52.143 15.15 51.909 15.15C44.19 15.144 36.474 15.144 28.755 15.15C28.521 15.15 28.254 15.135 28.062 15.24C27.828 15.363 27.501 15.597 27.489 15.798C27.438 16.686 27.336 17.616 27.531 18.468C27.96 20.352 29.535 21.57 31.485 21.582C33.726 21.597 35.964 21.582 38.205 21.585C38.343 21.585 38.481 21.618 38.703 21.648C38.559 21.819 38.487 21.936 38.388 22.014C37.938 22.365 37.467 22.689 37.026 23.049C35.736 24.102 34.395 25.104 33.183 26.244C31.017 28.281 28.92 30.396 27.087 32.745C25.719 34.497 24.333 36.24 23.052 38.055C21.726 39.93 20.478 41.868 19.461 43.935C19.032 44.805 18.549 45.657 18.231 46.569C17.856 47.643 17.544 48.756 17.373 49.878C17.106 51.624 17.448 53.253 18.765 54.552C19.734 55.506 20.892 56.091 22.257 56.205C23.646 56.322 25.032 56.334 26.388 55.926C26.886 55.776 27.405 55.695 27.891 55.515C29.052 55.08 30.213 54.633 31.35 54.138C32.739 53.535 34.104 52.872 35.481 52.245C36.768 51.66 38.046 51.042 39.357 50.52C40.308 50.142 41.331 49.947 42.288 49.578C43.131 49.251 43.974 49.287 44.82 49.389C45.474 49.467 46.044 49.809 46.389 50.367C46.803 51.039 47.151 51.756 47.469 52.479C47.718 53.043 47.847 53.661 48.084 54.234C48.63 55.539 49.665 56.292 51.027 56.475C52.005 56.607 53.013 56.562 53.985 56.256C54.507 56.091 54.9 55.614 54.801 55.074C54.567 53.82 54.375 52.545 53.997 51.33C53.625 50.139 53.109 48.984 52.542 47.871C51.639 46.101 50.292 44.721 48.522 43.794C47.661 43.344 46.716 43.143 45.774 42.897C44.241 42.498 42.78 42.834 41.31 43.083C40.386 43.239 39.477 43.545 38.595 43.872C36.909 44.499 35.226 45.144 33.576 45.864C31.674 46.692 29.814 47.616 27.924 48.48C27.429 48.708 26.91 48.891 26.388 49.047C25.938 49.179 25.515 49.071 25.212 48.687C24.969 48.378 24.744 48.024 24.918 47.625C25.191 47.001 25.491 46.383 25.842 45.804C26.64 44.49 27.429 43.164 28.314 41.904C29.334 40.452 30.42 39.048 31.533 37.665C32.598 36.342 33.696 35.037 34.848 33.789C36.762 31.71 38.88 29.838 41.133 28.137C42.795 26.88 44.562 25.764 46.287 24.594C46.425 24.501 46.596 24.456 46.827 24.354L46.83 24.348Z" fill="#82C343"/>
<path d="M46.83 24.348C46.599 24.447 46.428 24.492 46.29 24.588C44.565 25.761 42.795 26.874 41.136 28.131C38.886 29.832 36.768 31.704 34.851 33.783C33.699 35.034 32.601 36.336 31.536 37.659C30.423 39.042 29.337 40.446 28.317 41.898C27.432 43.155 26.643 44.481 25.845 45.798C25.491 46.38 25.194 46.998 24.921 47.619C24.747 48.018 24.972 48.372 25.215 48.681C25.518 49.068 25.941 49.176 26.391 49.041C26.913 48.885 27.432 48.699 27.927 48.474C29.814 47.61 31.674 46.686 33.579 45.858C35.229 45.141 36.912 44.493 38.598 43.866C39.48 43.539 40.389 43.233 41.313 43.077C42.783 42.828 44.244 42.492 45.777 42.891C46.719 43.137 47.664 43.338 48.525 43.788C50.295 44.715 51.645 46.095 52.545 47.865C53.112 48.978 53.631 50.136 54 51.324C54.378 52.539 54.57 53.811 54.804 55.068C54.903 55.605 54.513 56.085 53.988 56.25C53.016 56.556 52.011 56.598 51.03 56.469C49.668 56.286 48.633 55.533 48.087 54.228C47.847 53.658 47.721 53.04 47.472 52.473C47.154 51.75 46.806 51.033 46.392 50.361C46.047 49.803 45.477 49.458 44.823 49.383C43.974 49.284 43.134 49.248 42.291 49.572C41.337 49.941 40.311 50.136 39.36 50.514C38.046 51.036 36.771 51.651 35.484 52.239C34.104 52.866 32.742 53.529 31.353 54.132C30.216 54.627 29.055 55.074 27.894 55.509C27.411 55.689 26.889 55.773 26.391 55.92C25.035 56.328 23.649 56.316 22.26 56.199C20.895 56.085 19.737 55.5 18.768 54.546C17.451 53.247 17.106 51.618 17.376 49.872C17.547 48.75 17.862 47.637 18.234 46.563C18.552 45.654 19.035 44.799 19.464 43.929C20.481 41.859 21.729 39.924 23.055 38.049C24.339 36.234 25.725 34.494 27.09 32.739C28.923 30.387 31.02 28.272 33.186 26.238C34.398 25.101 35.739 24.099 37.029 23.043C37.47 22.683 37.941 22.356 38.391 22.008C38.49 21.93 38.562 21.813 38.706 21.642C38.481 21.612 38.346 21.579 38.208 21.579C35.967 21.579 33.729 21.588 31.488 21.576C29.538 21.564 27.966 20.346 27.534 18.462C27.339 17.61 27.441 16.68 27.492 15.792C27.504 15.591 27.831 15.357 28.065 15.234C28.257 15.132 28.524 15.144 28.758 15.144C36.477 15.141 44.193 15.144 51.912 15.144C52.146 15.144 52.413 15.132 52.605 15.237C52.836 15.363 53.055 15.579 53.178 15.81C53.28 16.002 53.256 16.269 53.259 16.506C53.292 22.506 53.322 28.506 53.358 34.509C53.364 35.715 53.403 36.924 53.412 38.13C53.418 39.12 52.941 39.612 51.951 39.594C51.183 39.582 50.391 39.612 49.653 39.441C48.432 39.162 47.592 38.358 47.112 37.185C46.896 36.66 46.878 36.126 46.881 35.577C46.884 32.043 46.881 28.509 46.878 24.975C46.878 24.783 46.851 24.594 46.833 24.342L46.83 24.348Z" fill="#4C2267"/>
</g>
</g>
<defs>
<clipPath id="clip0_120_983">
<rect width="72" height="72" fill="white"/>
</clipPath>
</defs>
</svg>
